<svg xmlns="http://www.w3.org/2000/svg" width="1600" height="1000" viewBox="0 0 1600 1000">
<style>text{font-family:Apple SD Gothic Neo,Malgun Gothic,Noto Sans KR,Arial,sans-serif;} .small{font-size:15px;fill:#626a64;} .axis{stroke:#626a64;stroke-width:1;} .grid{stroke:#d9d5c8;stroke-width:1;opacity:.65;} .label{font-size:15px;fill:#626a64;}</style>
<rect x="0.0" y="0.0" width="1600.0" height="1000.0" fill="#f6f5ef" opacity="1"/>
<text x="800.0" y="54.0" font-size="30" fill="#202323" font-weight="800" text-anchor="middle">한신대 경쟁률 추이와 비교군 대비 변화</text>
<text x="800.0" y="86.0" font-size="16" fill="#626a64" font-weight="400" text-anchor="middle">출처: docs/입시결과분석/경쟁률_연도별비교.csv | 기술통계/단순 DID용 그래프(SDID 재현 아님)</text>
<rect x="70" y="120" width="1460" height="430" rx="12" fill="#ffffff" stroke="#d9d5c8" stroke-width="1"/>
<text x="98.0" y="162.0" font-size="21" fill="#202323" font-weight="800" text-anchor="start">연도별 입시 경쟁률</text>
<polyline points="140.0,496.0 1490.0,496.0" fill="none" stroke="#d9d5c8" stroke-width="1"/>
<text x="125.0" y="501.0" font-size="14" fill="#626a64" font-weight="400" text-anchor="end">0</text>
<polyline points="140.0,416.5 1490.0,416.5" fill="none" stroke="#d9d5c8" stroke-width="1"/>
<text x="125.0" y="421.5" font-size="14" fill="#626a64" font-weight="400" text-anchor="end">5</text>
<polyline points="140.0,337.0 1490.0,337.0" fill="none" stroke="#d9d5c8" stroke-width="1"/>
<text x="125.0" y="342.0" font-size="14" fill="#626a64" font-weight="400" text-anchor="end">10</text>
<polyline points="140.0,257.5 1490.0,257.5" fill="none" stroke="#d9d5c8" stroke-width="1"/>
<text x="125.0" y="262.5" font-size="14" fill="#626a64" font-weight="400" text-anchor="end">15</text>
<polyline points="140.0,178.0 1490.0,178.0" fill="none" stroke="#d9d5c8" stroke-width="1"/>
<text x="125.0" y="183.0" font-size="14" fill="#626a64" font-weight="400" text-anchor="end">20</text>
<polyline points="140.0,178.0 140.0,496.0 1490.0,496.0" fill="none" stroke="#626a64" stroke-width="1.2"/>
<polyline points="140.0,496.0 140.0,502.0" fill="none" stroke="#626a64" stroke-width="1"/>
<text x="140.0" y="524.0" font-size="13" fill="#626a64" font-weight="400" text-anchor="middle">2016</text>
<polyline points="275.0,496.0 275.0,502.0" fill="none" stroke="#626a64" stroke-width="1"/>
<text x="275.0" y="524.0" font-size="13" fill="#626a64" font-weight="400" text-anchor="middle">2017</text>
<polyline points="410.0,496.0 410.0,502.0" fill="none" stroke="#626a64" stroke-width="1"/>
<text x="410.0" y="524.0" font-size="13" fill="#626a64" font-weight="400" text-anchor="middle">2018</text>
<polyline points="545.0,496.0 545.0,502.0" fill="none" stroke="#626a64" stroke-width="1"/>
<text x="545.0" y="524.0" font-size="13" fill="#626a64" font-weight="400" text-anchor="middle">2019</text>
<polyline points="680.0,496.0 680.0,502.0" fill="none" stroke="#626a64" stroke-width="1"/>
<text x="680.0" y="524.0" font-size="13" fill="#626a64" font-weight="400" text-anchor="middle">2020</text>
<polyline points="815.0,496.0 815.0,502.0" fill="none" stroke="#626a64" stroke-width="1"/>
<text x="815.0" y="524.0" font-size="13" fill="#626a64" font-weight="400" text-anchor="middle">2021</text>
<polyline points="950.0,496.0 950.0,502.0" fill="none" stroke="#626a64" stroke-width="1"/>
<text x="950.0" y="524.0" font-size="13" fill="#626a64" font-weight="400" text-anchor="middle">2022</text>
<polyline points="1085.0,496.0 1085.0,502.0" fill="none" stroke="#626a64" stroke-width="1"/>
<text x="1085.0" y="524.0" font-size="13" fill="#626a64" font-weight="400" text-anchor="middle">2023</text>
<polyline points="1220.0,496.0 1220.0,502.0" fill="none" stroke="#626a64" stroke-width="1"/>
<text x="1220.0" y="524.0" font-size="13" fill="#626a64" font-weight="400" text-anchor="middle">2024</text>
<polyline points="1355.0,496.0 1355.0,502.0" fill="none" stroke="#626a64" stroke-width="1"/>
<text x="1355.0" y="524.0" font-size="13" fill="#626a64" font-weight="400" text-anchor="middle">2025</text>
<polyline points="1490.0,496.0 1490.0,502.0" fill="none" stroke="#626a64" stroke-width="1"/>
<text x="1490.0" y="524.0" font-size="13" fill="#626a64" font-weight="400" text-anchor="middle">2026</text>
<polyline points="1085.0,178.0 1085.0,496.0" fill="none" stroke="#d94b4b" stroke-width="2" stroke-dasharray="7 7"/>
<text x="1095.0" y="206.0" font-size="16" fill="#b53d3d" font-weight="800" text-anchor="start">2023 계열제 도입</text>
<polyline points="140.0,381.4 275.0,380.4 410.0,377.1 545.0,377.1 680.0,383.3 815.0,394.1 950.0,384.2 1085.0,384.5 1220.0,383.7 1355.0,375.6" fill="none" stroke="#9aa0a6" stroke-width="2.6"/>
<circle cx="140.0" cy="381.4" r="4.8" fill="#9aa0a6" stroke="white" stroke-width="2"/>
<circle cx="275.0" cy="380.4" r="4.8" fill="#9aa0a6" stroke="white" stroke-width="2"/>
<circle cx="410.0" cy="377.1" r="4.8" fill="#9aa0a6" stroke="white" stroke-width="2"/>
<circle cx="545.0" cy="377.1" r="4.8" fill="#9aa0a6" stroke="white" stroke-width="2"/>
<circle cx="680.0" cy="383.3" r="4.8" fill="#9aa0a6" stroke="white" stroke-width="2"/>
<circle cx="815.0" cy="394.1" r="4.8" fill="#9aa0a6" stroke="white" stroke-width="2"/>
<circle cx="950.0" cy="384.2" r="4.8" fill="#9aa0a6" stroke="white" stroke-width="2"/>
<circle cx="1085.0" cy="384.5" r="4.8" fill="#9aa0a6" stroke="white" stroke-width="2"/>
<circle cx="1220.0" cy="383.7" r="4.8" fill="#9aa0a6" stroke="white" stroke-width="2"/>
<circle cx="1355.0" cy="375.6" r="4.8" fill="#9aa0a6" stroke="white" stroke-width="2"/>
<polyline points="140.0,366.1 275.0,362.8 410.0,353.1 545.0,348.8 680.0,363.6 815.0,377.1 950.0,367.7 1085.0,366.3 1220.0,362.8 1355.0,346.7" fill="none" stroke="#1f9d8a" stroke-width="2.6"/>
<circle cx="140.0" cy="366.1" r="4.8" fill="#1f9d8a" stroke="white" stroke-width="2"/>
<circle cx="275.0" cy="362.8" r="4.8" fill="#1f9d8a" stroke="white" stroke-width="2"/>
<circle cx="410.0" cy="353.1" r="4.8" fill="#1f9d8a" stroke="white" stroke-width="2"/>
<circle cx="545.0" cy="348.8" r="4.8" fill="#1f9d8a" stroke="white" stroke-width="2"/>
<circle cx="680.0" cy="363.6" r="4.8" fill="#1f9d8a" stroke="white" stroke-width="2"/>
<circle cx="815.0" cy="377.1" r="4.8" fill="#1f9d8a" stroke="white" stroke-width="2"/>
<circle cx="950.0" cy="367.7" r="4.8" fill="#1f9d8a" stroke="white" stroke-width="2"/>
<circle cx="1085.0" cy="366.3" r="4.8" fill="#1f9d8a" stroke="white" stroke-width="2"/>
<circle cx="1220.0" cy="362.8" r="4.8" fill="#1f9d8a" stroke="white" stroke-width="2"/>
<circle cx="1355.0" cy="346.7" r="4.8" fill="#1f9d8a" stroke="white" stroke-width="2"/>
<polyline points="140.0,373.6 275.0,359.3 410.0,354.0 545.0,354.0 680.0,356.1 815.0,379.4 950.0,391.6 1085.0,378.9 1220.0,379.9 1355.0,372.5 1490.0,382.6" fill="none" stroke="#b8791e" stroke-width="2.6"/>
<circle cx="140.0" cy="373.6" r="4.8" fill="#b8791e" stroke="white" stroke-width="2"/>
<circle cx="275.0" cy="359.3" r="4.8" fill="#b8791e" stroke="white" stroke-width="2"/>
<circle cx="410.0" cy="354.0" r="4.8" fill="#b8791e" stroke="white" stroke-width="2"/>
<circle cx="545.0" cy="354.0" r="4.8" fill="#b8791e" stroke="white" stroke-width="2"/>
<circle cx="680.0" cy="356.1" r="4.8" fill="#b8791e" stroke="white" stroke-width="2"/>
<circle cx="815.0" cy="379.4" r="4.8" fill="#b8791e" stroke="white" stroke-width="2"/>
<circle cx="950.0" cy="391.6" r="4.8" fill="#b8791e" stroke="white" stroke-width="2"/>
<circle cx="1085.0" cy="378.9" r="4.8" fill="#b8791e" stroke="white" stroke-width="2"/>
<circle cx="1220.0" cy="379.9" r="4.8" fill="#b8791e" stroke="white" stroke-width="2"/>
<circle cx="1355.0" cy="372.5" r="4.8" fill="#b8791e" stroke="white" stroke-width="2"/>
<circle cx="1490.0" cy="382.6" r="4.8" fill="#b8791e" stroke="white" stroke-width="2"/>
<polyline points="140.0,343.4 275.0,341.8 410.0,364.0 545.0,338.6 680.0,343.4 815.0,351.3 950.0,383.1 1085.0,399.0 1220.0,402.2 1355.0,386.3 1490.0,401.9" fill="none" stroke="#d94b4b" stroke-width="3.2"/>
<circle cx="140.0" cy="343.4" r="5.8" fill="#d94b4b" stroke="white" stroke-width="2"/>
<circle cx="275.0" cy="341.8" r="5.8" fill="#d94b4b" stroke="white" stroke-width="2"/>
<circle cx="410.0" cy="364.0" r="5.8" fill="#d94b4b" stroke="white" stroke-width="2"/>
<circle cx="545.0" cy="338.6" r="5.8" fill="#d94b4b" stroke="white" stroke-width="2"/>
<circle cx="680.0" cy="343.4" r="5.8" fill="#d94b4b" stroke="white" stroke-width="2"/>
<circle cx="815.0" cy="351.3" r="5.8" fill="#d94b4b" stroke="white" stroke-width="2"/>
<circle cx="950.0" cy="383.1" r="5.8" fill="#d94b4b" stroke="white" stroke-width="2"/>
<circle cx="1085.0" cy="399.0" r="5.8" fill="#d94b4b" stroke="white" stroke-width="2"/>
<circle cx="1220.0" cy="402.2" r="5.8" fill="#d94b4b" stroke="white" stroke-width="2"/>
<circle cx="1355.0" cy="386.3" r="5.8" fill="#d94b4b" stroke="white" stroke-width="2"/>
<circle cx="1490.0" cy="401.9" r="5.8" fill="#d94b4b" stroke="white" stroke-width="2"/>
<polyline points="152.0,196.0 180.0,196.0" fill="none" stroke="#9aa0a6" stroke-width="4"/>
<circle cx="166.0" cy="196.0" r="4" fill="#9aa0a6" stroke="white" stroke-width="2"/>
<text x="190.0" y="201.0" font-size="15" fill="#202323" font-weight="700" text-anchor="start">전체 대학 평균</text>
<polyline points="412.0,196.0 440.0,196.0" fill="none" stroke="#1f9d8a" stroke-width="4"/>
<circle cx="426.0" cy="196.0" r="4" fill="#1f9d8a" stroke="white" stroke-width="2"/>
<text x="450.0" y="201.0" font-size="15" fill="#202323" font-weight="700" text-anchor="start">경기도 대학 평균</text>
<polyline points="672.0,196.0 700.0,196.0" fill="none" stroke="#b8791e" stroke-width="4"/>
<circle cx="686.0" cy="196.0" r="4" fill="#b8791e" stroke="white" stroke-width="2"/>
<text x="710.0" y="201.0" font-size="15" fill="#202323" font-weight="700" text-anchor="start">보고서 비교군 평균</text>
<polyline points="932.0,196.0 960.0,196.0" fill="none" stroke="#d94b4b" stroke-width="4"/>
<circle cx="946.0" cy="196.0" r="4" fill="#d94b4b" stroke="white" stroke-width="2"/>
<text x="970.0" y="201.0" font-size="15" fill="#202323" font-weight="700" text-anchor="start">한신대학교</text>
<rect x="70" y="600" width="700" height="330" rx="12" fill="#ffffff" stroke="#d9d5c8" stroke-width="1"/>
<text x="98.0" y="642.0" font-size="21" fill="#202323" font-weight="800" text-anchor="start">한신대 - 경기도 대학 평균 격차</text>
<polyline points="142.0,871.6 730.0,871.6" fill="none" stroke="#d9d5c8" stroke-width="1"/>
<text x="128.0" y="876.6" font-size="13" fill="#626a64" font-weight="400" text-anchor="end">-3</text>
<polyline points="142.0,829.7 730.0,829.7" fill="none" stroke="#d9d5c8" stroke-width="1"/>
<text x="128.0" y="834.7" font-size="13" fill="#626a64" font-weight="400" text-anchor="end">-2</text>
<polyline points="142.0,787.8 730.0,787.8" fill="none" stroke="#d9d5c8" stroke-width="1"/>
<text x="128.0" y="792.8" font-size="13" fill="#626a64" font-weight="400" text-anchor="end">-1</text>
<polyline points="142.0,745.8 730.0,745.8" fill="none" stroke="#d9d5c8" stroke-width="1"/>
<text x="128.0" y="750.8" font-size="13" fill="#626a64" font-weight="400" text-anchor="end">0</text>
<polyline points="142.0,703.9 730.0,703.9" fill="none" stroke="#d9d5c8" stroke-width="1"/>
<text x="128.0" y="708.9" font-size="13" fill="#626a64" font-weight="400" text-anchor="end">1</text>
<polyline points="142.0,662.0 730.0,662.0" fill="none" stroke="#d9d5c8" stroke-width="1"/>
<text x="128.0" y="667.0" font-size="13" fill="#626a64" font-weight="400" text-anchor="end">2</text>
<polyline points="142.0,662.0 142.0,880.0 730.0,880.0" fill="none" stroke="#626a64" stroke-width="1.2"/>
<polyline points="142.0,745.8 730.0,745.8" fill="none" stroke="#202323" stroke-width="1.4"/>
<rect x="152.6" y="685.9" width="37.6" height="59.9" fill="#1f9d8a" opacity="0.9"/>
<text x="171.4" y="904.0" font-size="12" fill="#626a64" font-weight="400" text-anchor="middle">2016</text>
<rect x="211.4" y="690.5" width="37.6" height="55.3" fill="#1f9d8a" opacity="0.9"/>
<text x="230.2" y="904.0" font-size="12" fill="#626a64" font-weight="400" text-anchor="middle">2017</text>
<rect x="270.2" y="745.8" width="37.6" height="28.9" fill="#d94b4b" opacity="0.9"/>
<text x="289.0" y="904.0" font-size="12" fill="#626a64" font-weight="400" text-anchor="middle">2018</text>
<rect x="329.0" y="719.0" width="37.6" height="26.8" fill="#1f9d8a" opacity="0.9"/>
<text x="347.8" y="904.0" font-size="12" fill="#626a64" font-weight="400" text-anchor="middle">2019</text>
<rect x="387.8" y="692.6" width="37.6" height="53.2" fill="#1f9d8a" opacity="0.9"/>
<text x="406.6" y="904.0" font-size="12" fill="#626a64" font-weight="400" text-anchor="middle">2020</text>
<rect x="446.6" y="677.9" width="37.6" height="67.9" fill="#1f9d8a" opacity="0.9"/>
<text x="465.4" y="904.0" font-size="12" fill="#626a64" font-weight="400" text-anchor="middle">2021</text>
<rect x="505.4" y="745.8" width="37.6" height="40.7" fill="#d94b4b" opacity="0.9"/>
<text x="524.2" y="904.0" font-size="12" fill="#626a64" font-weight="400" text-anchor="middle">2022</text>
<rect x="564.2" y="745.8" width="37.6" height="86.4" fill="#d94b4b" opacity="0.9"/>
<text x="583.0" y="904.0" font-size="12" fill="#626a64" font-weight="400" text-anchor="middle">2023</text>
<rect x="623.0" y="745.8" width="37.6" height="104.0" fill="#d94b4b" opacity="0.9"/>
<text x="641.8" y="904.0" font-size="12" fill="#626a64" font-weight="400" text-anchor="middle">2024</text>
<rect x="681.8" y="745.8" width="37.6" height="104.4" fill="#d94b4b" opacity="0.9"/>
<text x="700.6" y="904.0" font-size="12" fill="#626a64" font-weight="400" text-anchor="middle">2025</text>
<rect x="830" y="600" width="700" height="330" rx="12" fill="#ffffff" stroke="#d9d5c8" stroke-width="1"/>
<text x="858.0" y="642.0" font-size="21" fill="#202323" font-weight="800" text-anchor="start">전후 변화(2016~2022 → 2023~2025)</text>
<polyline points="908.0,869.1 1490.0,869.1" fill="none" stroke="#d9d5c8" stroke-width="1"/>
<text x="894.0" y="874.1" font-size="13" fill="#626a64" font-weight="400" text-anchor="end">-3</text>
<polyline points="908.0,814.6 1490.0,814.6" fill="none" stroke="#d9d5c8" stroke-width="1"/>
<text x="894.0" y="819.6" font-size="13" fill="#626a64" font-weight="400" text-anchor="end">-2</text>
<polyline points="908.0,760.1 1490.0,760.1" fill="none" stroke="#d9d5c8" stroke-width="1"/>
<text x="894.0" y="765.1" font-size="13" fill="#626a64" font-weight="400" text-anchor="end">-1</text>
<polyline points="908.0,705.6 1490.0,705.6" fill="none" stroke="#d9d5c8" stroke-width="1"/>
<text x="894.0" y="710.6" font-size="13" fill="#626a64" font-weight="400" text-anchor="end">0</text>
<polyline points="908.0,662.0 908.0,880.0 1490.0,880.0" fill="none" stroke="#626a64" stroke-width="1.2"/>
<polyline points="908.0,705.6 1490.0,705.6" fill="none" stroke="#202323" stroke-width="1.4"/>
<rect x="958.0" y="705.6" width="94.0" height="149.5" fill="#d94b4b" opacity="0.92"/>
<text x="1005.0" y="877.1" font-size="17" fill="#202323" font-weight="800" text-anchor="middle">-2.74</text>
<text x="1005.0" y="906.0" font-size="15" fill="#626a64" font-weight="700" text-anchor="middle">한신대</text>
<rect x="1152.0" y="705.6" width="94.0" height="35.2" fill="#b8791e" opacity="0.92"/>
<text x="1199.0" y="762.8" font-size="17" fill="#202323" font-weight="800" text-anchor="middle">-0.65</text>
<text x="1199.0" y="906.0" font-size="15" fill="#626a64" font-weight="700" text-anchor="middle">보고서 비교군</text>
<rect x="1346.0" y="691.4" width="94.0" height="14.2" fill="#1f9d8a" opacity="0.92"/>
<text x="1393.0" y="681.4" font-size="17" fill="#202323" font-weight="800" text-anchor="middle">+0.26</text>
<text x="1393.0" y="906.0" font-size="15" fill="#626a64" font-weight="700" text-anchor="middle">경기도 평균</text>
<rect x="980.0" y="680.0" width="438.0" height="34.0" fill="#f6f5ef" opacity="1"/>
<text x="1199.0" y="703.0" font-size="15" fill="#4f5652" font-weight="700" text-anchor="middle">단순 DID: 보고서 비교군 대비 -2.10, 경기도 평균 대비 -3.00</text>
</svg>